# xmcd CD database file
#
# Track frame offsets:
#	150
#	20432
#	42232
#	62577
#
# Disc length: 1120 seconds
#
# Revision: 0
# Processed by: cddbd v1.5PL3 Copyright (c) Steve Scherf et al.
# Submitted via: CDex 1.50
#
DISCID=2a045e04
DTITLE=ちゃい夢 - ディスコでDOYO！
DYEAR=2002
DGENRE=JPop
TTITLE0=ディスコでDOYO！
TTITLE1=大きな古時計
TTITLE2=ディスコでDOYO！（カラオケ)
TTITLE3=大きな古時計(カラオケ)
EXTD=YEAR: 2002
EXTT0=
EXTT1=
EXTT2=
EXTT3=
PLAYORDER=
